<svg xmlns="http://www.w3.org/2000/svg" width="1920" height="1080" viewBox="0 0 1920 1080">
  <defs>
    <linearGradient id="bg" x1="0" y1="0" x2="1" y2="1">
      <stop offset="0%" stop-color="#0f2f1f"/>
      <stop offset="45%" stop-color="#1f5f3a"/>
      <stop offset="100%" stop-color="#d7f2d0"/>
    </linearGradient>
    <radialGradient id="light" cx="70%" cy="25%" r="55%">
      <stop offset="0%" stop-color="#ffffff" stop-opacity="0.35"/>
      <stop offset="100%" stop-color="#ffffff" stop-opacity="0"/>
    </radialGradient>
  </defs>
  <rect width="1920" height="1080" fill="url(#bg)"/>
  <rect width="1920" height="1080" fill="url(#light)"/>
  <g opacity="0.28" fill="#ffffff">
    <ellipse cx="220" cy="840" rx="90" ry="260" transform="rotate(-35 220 840)"/>
    <ellipse cx="370" cy="780" rx="75" ry="220" transform="rotate(28 370 780)"/>
    <ellipse cx="1550" cy="790" rx="95" ry="280" transform="rotate(35 1550 790)"/>
    <ellipse cx="1710" cy="840" rx="70" ry="230" transform="rotate(-25 1710 840)"/>
  </g>
  <g opacity="0.38" stroke="#ffffff" stroke-width="7" fill="none">
    <path d="M260 1080 C250 880 300 760 390 620"/>
    <path d="M1640 1080 C1620 850 1530 710 1420 560"/>
    <path d="M930 1080 C920 850 960 690 1040 520"/>
  </g>
  <g opacity="0.18" fill="#ffffff">
    <circle cx="1450" cy="220" r="210"/>
    <circle cx="1280" cy="350" r="90"/>
  </g>
</svg>
